<?xml version="1.0" encoding="UTF-8"?><svg id="Layer_9" xmlns="http://www.w3.org/2000/svg" viewBox="0 0 1119 1128"><defs><style>.cls-1{fill:#110e14;stroke-width:0px;}</style></defs><path class="cls-1" d="m824.9613,684.8564l-99.7009-32.3948,9.0159,49.06,33.959,184.7876-165.2498-89.3992-43.8728-23.7349-43.8728,23.7349-165.2498,89.3992,33.959-184.7876.4027-2.1905,491.0527-189.7839-.0238.0224,225.1444-87.0085h0l-377.1088-50.2285L559.1126,29.2022l-164.3035,343.1304L17.7002,422.5612l275.4882,262.2234.06.1553-68.7471,374.0899,334.6112-181.0229,334.6112,181.0229-68.7625-374.1733h0ZM220.7454,488.5348l186.2373-24.8056,49.4451-6.5859,21.5427-44.9898,81.1421-169.4565,81.1421,169.4565,21.5427,44.9898,49.4451,6.5859,20.0386,2.669-379.6437,146.726-130.8919-124.5894Z"/></svg>